<svg width="305" height="192" viewBox="0 0 305 192" fill="none" xmlns="http://www.w3.org/2000/svg">
<g filter="url(#filter0_b_1706_1650)">
<rect width="305" height="192" rx="30" fill="white" fill-opacity="0.8"/>
</g>
<path d="M94.104 101.944C96.152 100.237 97.784 98.8187 99 97.688C100.216 96.536 101.229 95.3413 102.04 94.104C102.851 92.8667 103.256 91.6507 103.256 90.456C103.256 89.368 103 88.5147 102.488 87.896C101.976 87.2773 101.187 86.968 100.12 86.968C99.0533 86.968 98.232 87.3307 97.656 88.056C97.08 88.76 96.7813 89.7307 96.76 90.968H92.408C92.4933 88.408 93.2507 86.4667 94.68 85.144C96.1307 83.8213 97.9653 83.16 100.184 83.16C102.616 83.16 104.483 83.8107 105.784 85.112C107.085 86.392 107.736 88.088 107.736 90.2C107.736 91.864 107.288 93.4533 106.392 94.968C105.496 96.4827 104.472 97.8053 103.32 98.936C102.168 100.045 100.664 101.389 98.808 102.968H108.248V106.68H92.44V103.352L94.104 101.944ZM126.751 87.544H116.383V93.016C116.831 92.4613 117.471 92.0133 118.303 91.672C119.135 91.3093 120.02 91.128 120.959 91.128C122.666 91.128 124.063 91.5013 125.151 92.248C126.239 92.9947 127.028 93.9547 127.519 95.128C128.01 96.28 128.255 97.5173 128.255 98.84C128.255 101.293 127.551 103.267 126.143 104.76C124.756 106.253 122.772 107 120.191 107C117.759 107 115.818 106.392 114.367 105.176C112.916 103.96 112.095 102.371 111.903 100.408H116.255C116.447 101.261 116.874 101.944 117.535 102.456C118.218 102.968 119.082 103.224 120.127 103.224C121.386 103.224 122.335 102.829 122.975 102.04C123.615 101.251 123.935 100.205 123.935 98.904C123.935 97.5813 123.604 96.5787 122.943 95.896C122.303 95.192 121.354 94.84 120.095 94.84C119.199 94.84 118.452 95.064 117.855 95.512C117.258 95.96 116.831 96.5573 116.575 97.304H112.287V83.608H126.751V87.544ZM137.073 102.296L133.329 111.288H130.449L132.529 102.296H137.073ZM151.886 89.496C151.672 88.6 151.299 87.928 150.766 87.48C150.254 87.032 149.507 86.808 148.526 86.808C147.054 86.808 145.966 87.4053 145.262 88.6C144.579 89.7733 144.227 91.6933 144.206 94.36C144.718 93.5067 145.464 92.8453 146.446 92.376C147.427 91.8853 148.494 91.64 149.646 91.64C151.032 91.64 152.259 91.9387 153.326 92.536C154.392 93.1333 155.224 94.008 155.822 95.16C156.419 96.2907 156.718 97.656 156.718 99.256C156.718 100.771 156.408 102.125 155.79 103.32C155.192 104.493 154.307 105.411 153.134 106.072C151.96 106.733 150.563 107.064 148.942 107.064C146.723 107.064 144.974 106.573 143.694 105.592C142.435 104.611 141.55 103.245 141.038 101.496C140.547 99.7253 140.302 97.5493 140.302 94.968C140.302 91.064 140.974 88.12 142.318 86.136C143.662 84.1307 145.784 83.128 148.686 83.128C150.926 83.128 152.664 83.736 153.902 84.952C155.139 86.168 155.854 87.6827 156.046 89.496H151.886ZM148.622 95.32C147.491 95.32 146.542 95.6507 145.774 96.312C145.006 96.9733 144.622 97.9333 144.622 99.192C144.622 100.451 144.974 101.443 145.678 102.168C146.403 102.893 147.416 103.256 148.718 103.256C149.87 103.256 150.776 102.904 151.438 102.2C152.12 101.496 152.462 100.547 152.462 99.352C152.462 98.1147 152.131 97.1333 151.47 96.408C150.83 95.6827 149.88 95.32 148.622 95.32ZM164.163 94.648C162.029 93.5387 160.963 91.8213 160.963 89.496C160.963 88.344 161.251 87.2987 161.827 86.36C162.424 85.4 163.309 84.6427 164.483 84.088C165.677 83.512 167.128 83.224 168.835 83.224C170.541 83.224 171.981 83.512 173.155 84.088C174.349 84.6427 175.235 85.4 175.811 86.36C176.408 87.2987 176.707 88.344 176.707 89.496C176.707 90.6693 176.419 91.704 175.843 92.6C175.267 93.4747 174.499 94.1573 173.539 94.648C174.712 95.16 175.629 95.9067 176.291 96.888C176.952 97.8693 177.283 99.032 177.283 100.376C177.283 101.827 176.909 103.096 176.163 104.184C175.437 105.251 174.435 106.072 173.155 106.648C171.875 107.224 170.435 107.512 168.835 107.512C167.235 107.512 165.795 107.224 164.515 106.648C163.256 106.072 162.253 105.251 161.507 104.184C160.781 103.096 160.419 101.827 160.419 100.376C160.419 99.032 160.749 97.8693 161.411 96.888C162.072 95.8853 162.989 95.1387 164.163 94.648ZM172.355 90.136C172.355 89.0907 172.035 88.28 171.395 87.704C170.776 87.128 169.923 86.84 168.835 86.84C167.768 86.84 166.915 87.128 166.275 87.704C165.656 88.28 165.347 89.1013 165.347 90.168C165.347 91.128 165.667 91.896 166.307 92.472C166.968 93.048 167.811 93.336 168.835 93.336C169.859 93.336 170.701 93.048 171.363 92.472C172.024 91.8747 172.355 91.096 172.355 90.136ZM168.835 96.6C167.619 96.6 166.627 96.9093 165.859 97.528C165.112 98.1467 164.739 99.032 164.739 100.184C164.739 101.251 165.101 102.125 165.827 102.808C166.573 103.469 167.576 103.8 168.835 103.8C170.093 103.8 171.085 103.459 171.811 102.776C172.536 102.093 172.899 101.229 172.899 100.184C172.899 99.0533 172.525 98.1787 171.779 97.56C171.032 96.92 170.051 96.6 168.835 96.6ZM196.501 87.544H186.133V93.016C186.581 92.4613 187.221 92.0133 188.053 91.672C188.885 91.3093 189.77 91.128 190.709 91.128C192.416 91.128 193.813 91.5013 194.901 92.248C195.989 92.9947 196.778 93.9547 197.269 95.128C197.76 96.28 198.005 97.5173 198.005 98.84C198.005 101.293 197.301 103.267 195.893 104.76C194.506 106.253 192.522 107 189.941 107C187.509 107 185.568 106.392 184.117 105.176C182.666 103.96 181.845 102.371 181.653 100.408H186.005C186.197 101.261 186.624 101.944 187.285 102.456C187.968 102.968 188.832 103.224 189.877 103.224C191.136 103.224 192.085 102.829 192.725 102.04C193.365 101.251 193.685 100.205 193.685 98.904C193.685 97.5813 193.354 96.5787 192.693 95.896C192.053 95.192 191.104 94.84 189.845 94.84C188.949 94.84 188.202 95.064 187.605 95.512C187.008 95.96 186.581 96.5573 186.325 97.304H182.037V83.608H196.501V87.544Z" fill="#404040"/>
<path d="M77.704 92.832C77.704 93.3653 77.5707 93.8667 77.304 94.336C77.048 94.8053 76.664 95.2 76.152 95.52C75.6507 95.84 75.0533 96.032 74.36 96.096V97.392H73.32V96.096C72.3173 96 71.5067 95.6853 70.888 95.152C70.2693 94.6187 69.96 93.9147 69.96 93.04H71.912C71.944 93.456 72.0773 93.8027 72.312 94.08C72.5467 94.3467 72.8827 94.5173 73.32 94.592V91.072C72.6053 90.8907 72.024 90.7093 71.576 90.528C71.128 90.336 70.744 90.0373 70.424 89.632C70.1147 89.2267 69.96 88.672 69.96 87.968C69.96 87.0827 70.2693 86.352 70.888 85.776C71.5067 85.1893 72.3173 84.848 73.32 84.752V83.456H74.36V84.752C75.2987 84.8373 76.0507 85.136 76.616 85.648C77.192 86.1493 77.5173 86.8427 77.592 87.728H75.64C75.608 87.3973 75.48 87.104 75.256 86.848C75.032 86.5813 74.7333 86.4 74.36 86.304V89.76C75.0747 89.9307 75.656 90.112 76.104 90.304C76.552 90.4853 76.9307 90.7787 77.24 91.184C77.5493 91.5787 77.704 92.128 77.704 92.832ZM71.816 87.872C71.816 88.3093 71.944 88.6507 72.2 88.896C72.4667 89.1413 72.84 89.3387 73.32 89.488V86.256C72.8613 86.3093 72.4933 86.4747 72.216 86.752C71.9493 87.0293 71.816 87.4027 71.816 87.872ZM74.36 94.592C74.8293 94.5173 75.1973 94.3307 75.464 94.032C75.7307 93.7227 75.864 93.3547 75.864 92.928C75.864 92.5013 75.7307 92.1707 75.464 91.936C75.208 91.6907 74.84 91.4933 74.36 91.344V94.592Z" fill="#404040"/>
<path d="M212.936 96.112C212.605 96.112 212.328 96 212.104 95.776C211.88 95.552 211.768 95.2747 211.768 94.944C211.768 94.6133 211.88 94.336 212.104 94.112C212.328 93.888 212.605 93.776 212.936 93.776C213.256 93.776 213.528 93.888 213.752 94.112C213.976 94.336 214.088 94.6133 214.088 94.944C214.088 95.2747 213.976 95.552 213.752 95.776C213.528 96 213.256 96.112 212.936 96.112ZM223.339 85.904H217.979V89.088C218.203 88.7893 218.534 88.5387 218.971 88.336C219.419 88.1333 219.894 88.032 220.395 88.032C221.291 88.032 222.017 88.224 222.571 88.608C223.137 88.992 223.537 89.4773 223.771 90.064C224.017 90.6507 224.139 91.2693 224.139 91.92C224.139 92.7093 223.985 93.4133 223.675 94.032C223.377 94.64 222.923 95.12 222.315 95.472C221.718 95.824 220.982 96 220.107 96C218.945 96 218.011 95.712 217.307 95.136C216.603 94.56 216.182 93.7973 216.043 92.848H217.819C217.937 93.3493 218.198 93.7493 218.603 94.048C219.009 94.336 219.515 94.48 220.123 94.48C220.881 94.48 221.446 94.2507 221.819 93.792C222.203 93.3333 222.395 92.7253 222.395 91.968C222.395 91.2 222.203 90.6133 221.819 90.208C221.435 89.792 220.87 89.584 220.123 89.584C219.601 89.584 219.158 89.7173 218.795 89.984C218.443 90.24 218.187 90.592 218.027 91.04H216.299V84.304H223.339V85.904ZM233.558 85.904H228.198V89.088C228.422 88.7893 228.753 88.5387 229.19 88.336C229.638 88.1333 230.113 88.032 230.614 88.032C231.51 88.032 232.235 88.224 232.79 88.608C233.355 88.992 233.755 89.4773 233.99 90.064C234.235 90.6507 234.358 91.2693 234.358 91.92C234.358 92.7093 234.203 93.4133 233.894 94.032C233.595 94.64 233.142 95.12 232.534 95.472C231.937 95.824 231.201 96 230.326 96C229.163 96 228.23 95.712 227.526 95.136C226.822 94.56 226.401 93.7973 226.262 92.848H228.038C228.155 93.3493 228.417 93.7493 228.822 94.048C229.227 94.336 229.734 94.48 230.342 94.48C231.099 94.48 231.665 94.2507 232.038 93.792C232.422 93.3333 232.614 92.7253 232.614 91.968C232.614 91.2 232.422 90.6133 232.038 90.208C231.654 89.792 231.089 89.584 230.342 89.584C229.819 89.584 229.377 89.7173 229.014 89.984C228.662 90.24 228.406 90.592 228.246 91.04H226.518V84.304H233.558V85.904Z" fill="#404040"/>
<path fill-rule="evenodd" clip-rule="evenodd" d="M238.001 37.8983C241.76 37.8983 243.499 37.4161 243.667 35.4803C243.667 33.5458 242.455 33.6702 242.455 31.2967C242.455 29.4427 240.697 27.3333 238.001 27.3333C235.304 27.3333 233.547 29.4427 233.547 31.2967C233.547 33.6702 232.334 33.5458 232.334 35.4803C232.503 37.4234 234.242 37.8983 238.001 37.8983Z" stroke="#404040" stroke-width="1.2" stroke-linecap="round" stroke-linejoin="round"/>
<path d="M239.594 39.9048C238.684 40.9146 237.266 40.9266 236.348 39.9048" stroke="#404040" stroke-width="1.2" stroke-linecap="round" stroke-linejoin="round"/>
<circle cx="263.5" cy="33.5" r="1.5" fill="#404040"/>
<circle cx="271.5" cy="33.5" r="1.5" fill="#404040"/>
<circle cx="279.5" cy="33.5" r="1.5" fill="#404040"/>
<rect x="102.5" y="138.5" width="100" height="29" rx="14.5" stroke="#5ABF7E"/>
<path d="M142.952 154.864H140.624L140.224 156H139.272L141.264 150.432H142.32L144.312 156H143.352L142.952 154.864ZM142.696 154.12L141.792 151.536L140.88 154.12H142.696ZM146.994 150.44C147.586 150.44 148.103 150.555 148.546 150.784C148.994 151.008 149.338 151.333 149.578 151.76C149.823 152.181 149.946 152.675 149.946 153.24C149.946 153.805 149.823 154.296 149.578 154.712C149.338 155.128 148.994 155.448 148.546 155.672C148.103 155.891 147.586 156 146.994 156H145.178V150.44H146.994ZM146.994 155.256C147.645 155.256 148.143 155.08 148.49 154.728C148.837 154.376 149.01 153.88 149.01 153.24C149.01 152.595 148.837 152.091 148.49 151.728C148.143 151.365 147.645 151.184 146.994 151.184H146.09V155.256H146.994ZM152.666 150.44C153.258 150.44 153.775 150.555 154.218 150.784C154.666 151.008 155.01 151.333 155.25 151.76C155.495 152.181 155.618 152.675 155.618 153.24C155.618 153.805 155.495 154.296 155.25 154.712C155.01 155.128 154.666 155.448 154.218 155.672C153.775 155.891 153.258 156 152.666 156H150.85V150.44H152.666ZM152.666 155.256C153.317 155.256 153.815 155.08 154.162 154.728C154.509 154.376 154.682 153.88 154.682 153.24C154.682 152.595 154.509 152.091 154.162 151.728C153.815 151.365 153.317 151.184 152.666 151.184H151.762V155.256H152.666ZM164.456 150.44V156H163.544V152.192L161.848 156H161.216L159.512 152.192V156H158.6V150.44H159.584L161.536 154.8L163.48 150.44H164.456ZM168.191 156.056C167.673 156.056 167.196 155.936 166.759 155.696C166.327 155.451 165.983 155.112 165.727 154.68C165.476 154.243 165.351 153.752 165.351 153.208C165.351 152.664 165.476 152.176 165.727 151.744C165.983 151.312 166.327 150.976 166.759 150.736C167.196 150.491 167.673 150.368 168.191 150.368C168.713 150.368 169.191 150.491 169.623 150.736C170.06 150.976 170.404 151.312 170.655 151.744C170.905 152.176 171.031 152.664 171.031 153.208C171.031 153.752 170.905 154.243 170.655 154.68C170.404 155.112 170.06 155.451 169.623 155.696C169.191 155.936 168.713 156.056 168.191 156.056ZM168.191 155.264C168.559 155.264 168.887 155.181 169.175 155.016C169.463 154.845 169.687 154.605 169.847 154.296C170.012 153.981 170.095 153.619 170.095 153.208C170.095 152.797 170.012 152.437 169.847 152.128C169.687 151.819 169.463 151.581 169.175 151.416C168.887 151.251 168.559 151.168 168.191 151.168C167.823 151.168 167.495 151.251 167.207 151.416C166.919 151.581 166.692 151.819 166.527 152.128C166.367 152.437 166.287 152.797 166.287 153.208C166.287 153.619 166.367 153.981 166.527 154.296C166.692 154.605 166.919 154.845 167.207 155.016C167.495 155.181 167.823 155.264 168.191 155.264ZM176.496 156H175.584L172.84 151.848V156H171.928V150.432H172.84L175.584 154.576V150.432H176.496V156ZM178.606 151.176V152.808H180.526V153.552H178.606V155.256H180.766V156H177.694V150.432H180.766V151.176H178.606ZM186.009 150.44L184.169 153.984V156H183.257V153.984L181.409 150.44H182.425L183.713 153.168L185.001 150.44H186.009Z" fill="#525252"/>
<circle cx="125" cy="153" r="7" fill="#5BC17F"/>
<path d="M126.998 152.998H123.002" stroke="white" stroke-width="0.8" stroke-linecap="round" stroke-linejoin="round"/>
<path d="M125 155L125 151" stroke="white" stroke-width="0.8" stroke-linecap="round" stroke-linejoin="round"/>
<path d="M56.256 29.66V34.976C56.256 35.608 56.42 36.084 56.748 36.404C57.084 36.724 57.548 36.884 58.14 36.884C58.74 36.884 59.204 36.724 59.532 36.404C59.868 36.084 60.036 35.608 60.036 34.976V29.66H61.404V34.952C61.404 35.632 61.256 36.208 60.96 36.68C60.664 37.152 60.268 37.504 59.772 37.736C59.276 37.968 58.728 38.084 58.128 38.084C57.528 38.084 56.98 37.968 56.484 37.736C55.996 37.504 55.608 37.152 55.32 36.68C55.032 36.208 54.888 35.632 54.888 34.952V29.66H56.256ZM65.9332 38.084C65.3732 38.084 64.8692 37.988 64.4212 37.796C63.9732 37.596 63.6212 37.316 63.3652 36.956C63.1092 36.596 62.9812 36.176 62.9812 35.696H64.4452C64.4772 36.056 64.6172 36.352 64.8652 36.584C65.1212 36.816 65.4772 36.932 65.9332 36.932C66.4052 36.932 66.7732 36.82 67.0372 36.596C67.3012 36.364 67.4332 36.068 67.4332 35.708C67.4332 35.428 67.3492 35.2 67.1812 35.024C67.0212 34.848 66.8172 34.712 66.5692 34.616C66.3292 34.52 65.9932 34.416 65.5612 34.304C65.0172 34.16 64.5732 34.016 64.2292 33.872C63.8932 33.72 63.6052 33.488 63.3652 33.176C63.1252 32.864 63.0052 32.448 63.0052 31.928C63.0052 31.448 63.1252 31.028 63.3652 30.668C63.6052 30.308 63.9412 30.032 64.3732 29.84C64.8052 29.648 65.3052 29.552 65.8732 29.552C66.6812 29.552 67.3412 29.756 67.8532 30.164C68.3732 30.564 68.6612 31.116 68.7172 31.82H67.2052C67.1812 31.516 67.0372 31.256 66.7732 31.04C66.5092 30.824 66.1612 30.716 65.7292 30.716C65.3372 30.716 65.0172 30.816 64.7692 31.016C64.5212 31.216 64.3972 31.504 64.3972 31.88C64.3972 32.136 64.4732 32.348 64.6252 32.516C64.7852 32.676 64.9852 32.804 65.2252 32.9C65.4652 32.996 65.7932 33.1 66.2092 33.212C66.7612 33.364 67.2092 33.516 67.5532 33.668C67.9052 33.82 68.2012 34.056 68.4412 34.376C68.6892 34.688 68.8132 35.108 68.8132 35.636C68.8132 36.06 68.6972 36.46 68.4652 36.836C68.2412 37.212 67.9092 37.516 67.4692 37.748C67.0372 37.972 66.5252 38.084 65.9332 38.084ZM76.2685 29.66C77.1565 29.66 77.9325 29.832 78.5965 30.176C79.2685 30.512 79.7845 31 80.1445 31.64C80.5125 32.272 80.6965 33.012 80.6965 33.86C80.6965 34.708 80.5125 35.444 80.1445 36.068C79.7845 36.692 79.2685 37.172 78.5965 37.508C77.9325 37.836 77.1565 38 76.2685 38H73.5445V29.66H76.2685ZM76.2685 36.884C77.2445 36.884 77.9925 36.62 78.5125 36.092C79.0325 35.564 79.2925 34.82 79.2925 33.86C79.2925 32.892 79.0325 32.136 78.5125 31.592C77.9925 31.048 77.2445 30.776 76.2685 30.776H74.9125V36.884H76.2685ZM84.9203 38.108C84.2963 38.108 83.7323 37.968 83.2283 37.688C82.7243 37.4 82.3283 37 82.0403 36.488C81.7523 35.968 81.6083 35.368 81.6083 34.688C81.6083 34.016 81.7563 33.42 82.0523 32.9C82.3483 32.38 82.7523 31.98 83.2643 31.7C83.7763 31.42 84.3483 31.28 84.9803 31.28C85.6123 31.28 86.1843 31.42 86.6963 31.7C87.2083 31.98 87.6123 32.38 87.9083 32.9C88.2043 33.42 88.3523 34.016 88.3523 34.688C88.3523 35.36 88.2003 35.956 87.8963 36.476C87.5923 36.996 87.1763 37.4 86.6483 37.688C86.1283 37.968 85.5523 38.108 84.9203 38.108ZM84.9203 36.92C85.2723 36.92 85.6003 36.836 85.9043 36.668C86.2163 36.5 86.4683 36.248 86.6603 35.912C86.8523 35.576 86.9483 35.168 86.9483 34.688C86.9483 34.208 86.8563 33.804 86.6723 33.476C86.4883 33.14 86.2443 32.888 85.9403 32.72C85.6363 32.552 85.3083 32.468 84.9563 32.468C84.6043 32.468 84.2763 32.552 83.9723 32.72C83.6763 32.888 83.4403 33.14 83.2643 33.476C83.0883 33.804 83.0003 34.208 83.0003 34.688C83.0003 35.4 83.1803 35.952 83.5403 36.344C83.9083 36.728 84.3683 36.92 84.9203 36.92ZM91.0727 29.12V38H89.7047V29.12H91.0727ZM94.2368 29.12V38H92.8688V29.12H94.2368ZM95.5768 34.664C95.5768 34 95.7128 33.412 95.9848 32.9C96.2648 32.388 96.6408 31.992 97.1128 31.712C97.5928 31.424 98.1208 31.28 98.6968 31.28C99.2168 31.28 99.6688 31.384 100.053 31.592C100.445 31.792 100.757 32.044 100.989 32.348V31.388H102.369V38H100.989V37.016C100.757 37.328 100.441 37.588 100.041 37.796C99.6408 38.004 99.1848 38.108 98.6728 38.108C98.1048 38.108 97.5848 37.964 97.1128 37.676C96.6408 37.38 96.2648 36.972 95.9848 36.452C95.7128 35.924 95.5768 35.328 95.5768 34.664ZM100.989 34.688C100.989 34.232 100.893 33.836 100.701 33.5C100.517 33.164 100.273 32.908 99.9688 32.732C99.6648 32.556 99.3368 32.468 98.9848 32.468C98.6328 32.468 98.3048 32.556 98.0008 32.732C97.6968 32.9 97.4488 33.152 97.2568 33.488C97.0728 33.816 96.9808 34.208 96.9808 34.664C96.9808 35.12 97.0728 35.52 97.2568 35.864C97.4488 36.208 97.6968 36.472 98.0008 36.656C98.3128 36.832 98.6408 36.92 98.9848 36.92C99.3368 36.92 99.6648 36.832 99.9688 36.656C100.273 36.48 100.517 36.224 100.701 35.888C100.893 35.544 100.989 35.144 100.989 34.688ZM105.534 32.348C105.734 32.012 105.998 31.752 106.326 31.568C106.662 31.376 107.058 31.28 107.514 31.28V32.696H107.166C106.63 32.696 106.222 32.832 105.942 33.104C105.67 33.376 105.534 33.848 105.534 34.52V38H104.166V31.388H105.534V32.348Z" fill="#525252"/>
<g clip-path="url(#clip0_1706_1650)">
<path fill-rule="evenodd" clip-rule="evenodd" d="M24 24H62.0004V25.5385H24V24ZM24 27.077H62.0004V28.6154H24V27.077ZM24 30.1539H62.0004V31.6924H24V30.1539ZM24 33.2309H62.0004V34.7693H24V33.2309ZM24 36.3078H62.0004V37.8463H24V36.3078ZM24 39.3848H62.0004V40.9232H24V39.3848ZM24 42.4617H62.0004V44.0002H24V42.4617Z" fill="#BD3D44"/>
<path fill-rule="evenodd" clip-rule="evenodd" d="M24 25.5391H62.0004V27.0775H24V25.5391ZM24 28.616H62.0004V30.1545H24V28.616ZM24 31.693H62.0004V33.2314H24V31.693ZM24 34.7699H62.0004V36.3084H24V34.7699ZM24 37.8469H62.0004V39.3853H24V37.8469ZM24 40.9238H62.0004V42.4623H24V40.9238Z" fill="white"/>
<path fill-rule="evenodd" clip-rule="evenodd" d="M24 24H39.2001V34.7693H24V24Z" fill="#192F5D"/>
<path fill-rule="evenodd" clip-rule="evenodd" d="M25.2606 24.4609L25.4145 24.8917H25.8453L25.4914 25.1533L25.6299 25.5686L25.2606 25.3071L24.9222 25.5686L25.0606 25.1533L24.6914 24.8917H25.1529L25.2606 24.4609ZM27.7991 24.4609L27.9376 24.8917H28.3838L28.0145 25.1533L28.1684 25.5686L27.7991 25.3071L27.4299 25.5686L27.5837 25.1533L27.2145 24.8917H27.6607L27.7991 24.4609ZM30.3376 24.4609L30.4761 24.8917H30.9222L30.553 25.1533L30.7069 25.5686L30.3376 25.3071L29.9684 25.5686L30.1222 25.1533L29.753 24.8917H30.1992L30.3376 24.4609ZM32.8607 24.4609L33.0146 24.8917H33.4453L33.0915 25.1533L33.23 25.5686L32.8607 25.3071L32.5069 25.5686L32.6453 25.1533L32.2761 24.8917H32.7376L32.8607 24.4609ZM35.3992 24.4609L35.5377 24.8917H35.9838L35.6146 25.1533L35.7684 25.5686L35.3838 25.3071L35.03 25.5686L35.1684 25.1533L34.7992 24.8917H35.2454L35.3992 24.4609ZM37.9377 24.4609L38.0762 24.8917H38.5223L38.1531 25.1533L38.3069 25.5686L37.9377 25.3071L37.5685 25.5686L37.7223 25.1533L37.3531 24.8917H37.7992L37.9377 24.4609ZM26.5376 25.5379L26.676 25.9686H27.1222L26.753 26.2302L26.9068 26.6456L26.5376 26.384L26.1683 26.6456L26.3222 26.2302L25.953 25.9686H26.3991L26.5376 25.5379ZM29.0607 25.5379L29.2145 25.9686H29.6453L29.2915 26.2302L29.4299 26.6456L29.0607 26.384L28.7068 26.6456L28.8453 26.2302L28.4761 25.9686H28.9376L29.0607 25.5379ZM31.5992 25.5379L31.7376 25.9686H32.1838L31.8146 26.2302L31.9684 26.6456L31.5992 26.384L31.2299 26.6456L31.3838 26.2302L31.0145 25.9686H31.4607L31.5992 25.5379ZM34.1377 25.5379L34.2761 25.9686H34.7223L34.353 26.2302L34.5069 26.6456L34.1377 26.384L33.7684 26.6456L33.9223 26.2302L33.553 25.9686H33.9992L34.1377 25.5379ZM36.6608 25.5379L36.8146 25.9686H37.23L36.8761 26.2302L37.0146 26.6456L36.6454 26.384L36.2915 26.6456L36.43 26.2302L36.0608 25.9686H36.5223L36.6608 25.5379ZM25.276 26.6148L25.3991 27.0456H25.8606L25.4914 27.3071L25.6299 27.7225L25.2606 27.461L24.9222 27.7225L25.0606 27.3071L24.6914 27.0456H25.1529L25.276 26.6148ZM27.7991 26.6148L27.9376 27.0456H28.3838L28.0299 27.3071L28.1684 27.7225L27.7991 27.461L27.4453 27.7225L27.5837 27.3071L27.2145 27.0456H27.6607L27.7991 26.6148ZM30.3376 26.6148L30.4761 27.0456H30.9222L30.553 27.3071L30.7069 27.7225L30.3376 27.461L29.9684 27.7225L30.1222 27.3071L29.753 27.0456H30.1992L30.3376 26.6148ZM32.8607 26.6148L33.0146 27.0456H33.4453L33.0915 27.3071L33.23 27.7225L32.8607 27.461L32.5069 27.7225L32.6453 27.3071L32.2761 27.0456H32.7376L32.8607 26.6148ZM35.3992 26.6148L35.5377 27.0456H35.9838L35.63 27.3071L35.7684 27.7225L35.3992 27.461L35.0454 27.7225L35.1838 27.3071L34.8146 27.0456H35.2607L35.3992 26.6148ZM37.9377 26.6148L38.0762 27.0456H38.5223L38.1531 27.3071L38.3069 27.7225L37.9377 27.461L37.5685 27.7225L37.7223 27.3071L37.3531 27.0456H37.7992L37.9377 26.6148ZM26.5376 27.6917L26.676 28.1225H27.1222L26.753 28.3841L26.9068 28.7994L26.5376 28.5379L26.1683 28.7994L26.3222 28.3841L25.953 28.1225H26.3991L26.5376 27.6917ZM29.0607 27.6917L29.2145 28.1225H29.6453L29.2915 28.3841L29.4299 28.7994L29.0607 28.5379L28.7068 28.7994L28.8453 28.3841L28.4761 28.1225H28.9376L29.0607 27.6917ZM31.5992 27.6917L31.7376 28.1225H32.1838L31.8299 28.3841L31.9684 28.7994L31.5992 28.5379L31.2453 28.7994L31.3838 28.3841L31.0145 28.1225H31.4607L31.5992 27.6917ZM34.1377 27.6917L34.2761 28.1225H34.7223L34.353 28.3841L34.5069 28.7994L34.1377 28.5379L33.7684 28.7994L33.9223 28.3841L33.553 28.1225H33.9992L34.1377 27.6917ZM36.6608 27.6917L36.8146 28.1225H37.23L36.8761 28.3841L37.0146 28.7994L36.6454 28.5379L36.2915 28.7994L36.43 28.3841L36.0608 28.1225H36.5223L36.6608 27.6917ZM25.276 28.7687L25.3991 29.1994H25.8606L25.4914 29.461L25.6299 29.8764L25.2606 29.6148L24.9222 29.8764L25.0606 29.461L24.6914 29.1994H25.1529L25.276 28.7687ZM27.7991 28.7687L27.9376 29.1994H28.3838L28.0299 29.461L28.1684 29.8764L27.7991 29.6148L27.4453 29.8764L27.5837 29.461L27.2145 29.1994H27.6607L27.7991 28.7687ZM30.3376 28.7687L30.4761 29.1994H30.9222L30.553 29.461L30.7069 29.8764L30.3376 29.6148L29.9684 29.8764L30.1222 29.461L29.753 29.1994H30.1992L30.3376 28.7687ZM32.8607 28.7687L33.0146 29.1994H33.4453L33.0915 29.461L33.23 29.8764L32.8607 29.6148L32.5069 29.8764L32.6453 29.461L32.2761 29.1994H32.7376L32.8607 28.7687ZM35.3992 28.7687L35.5377 29.1994H35.9838L35.63 29.461L35.7684 29.8764L35.3992 29.6148L35.0454 29.8764L35.1838 29.461L34.8146 29.1994H35.2607L35.3992 28.7687ZM37.9377 28.7687L38.0762 29.1994H38.5223L38.1531 29.461L38.3069 29.8764L37.9377 29.6148L37.5685 29.8764L37.7223 29.461L37.3531 29.1994H37.7992L37.9377 28.7687ZM26.5376 29.8456L26.676 30.2764H27.1222L26.753 30.5379L26.9068 30.9533L26.5376 30.6918L26.1683 30.9533L26.3222 30.5379L25.953 30.2764H26.3991L26.5376 29.8456ZM29.0607 29.8456L29.2145 30.2764H29.6453L29.2915 30.5379L29.4299 30.9533L29.0607 30.6918L28.7068 30.9533L28.8453 30.5379L28.4761 30.2764H28.9376L29.0607 29.8456ZM31.5992 29.8456L31.7376 30.2764H32.1838L31.8299 30.5379L31.9684 30.9533L31.5992 30.6918L31.2453 30.9533L31.3838 30.5379L31.0145 30.2764H31.4607L31.5992 29.8456ZM34.1377 29.8456L34.2761 30.2764H34.7223L34.353 30.5379L34.5069 30.9533L34.1377 30.6918L33.7684 30.9533L33.9223 30.5379L33.553 30.2764H33.9992L34.1377 29.8456ZM36.6608 29.8456L36.8146 30.2764H37.23L36.8761 30.5379L37.0146 30.9533L36.6454 30.6918L36.2915 30.9533L36.43 30.5379L36.0608 30.2764H36.5223L36.6608 29.8456ZM25.276 30.9225L25.3991 31.3533H25.8606L25.4914 31.6149L25.6299 32.0302L25.2606 31.7687L24.9222 32.0302L25.0606 31.6149L24.6914 31.3533H25.1529L25.276 30.9225ZM27.7991 30.9225L27.9376 31.3533H28.3838L28.0299 31.6149L28.1684 32.0302L27.7991 31.7687L27.4453 32.0302L27.5837 31.6149L27.2145 31.3533H27.6607L27.7991 30.9225ZM30.3376 30.9225L30.4761 31.3533H30.9222L30.553 31.6149L30.7069 32.0302L30.3376 31.7687L29.9684 32.0302L30.1222 31.6149L29.753 31.3533H30.1992L30.3376 30.9225ZM32.8607 30.9225L33.0146 31.3533H33.4453L33.0915 31.6149L33.23 32.0302L32.8607 31.7687L32.5069 32.0302L32.6453 31.6149L32.2761 31.3533H32.7376L32.8607 30.9225ZM35.3992 30.9225L35.5377 31.3533H35.9838L35.63 31.6149L35.7684 32.0302L35.3992 31.7687L35.0454 32.0302L35.1838 31.6149L34.8146 31.3533H35.2607L35.3992 30.9225ZM37.9377 30.9225L38.0762 31.3533H38.5223L38.1531 31.6149L38.3069 32.0302L37.9377 31.7687L37.5685 32.0302L37.7223 31.6149L37.3531 31.3533H37.7992L37.9377 30.9225ZM26.5376 31.9995L26.676 32.4302H27.1222L26.753 32.6918L26.9068 33.1072L26.5376 32.8456L26.1683 33.1072L26.3222 32.6918L25.953 32.4302H26.3991L26.5376 31.9995ZM29.0607 31.9995L29.2145 32.4302H29.6453L29.2915 32.6918L29.4299 33.1072L29.0607 32.8456L28.7068 33.1072L28.8453 32.6918L28.4761 32.4302H28.9376L29.0607 31.9995ZM31.5992 31.9995L31.7376 32.4302H32.1838L31.8299 32.6918L31.9684 33.1072L31.5992 32.8456L31.2453 33.1072L31.3838 32.6918L31.0145 32.4302H31.4607L31.5992 31.9995ZM34.1377 31.9995L34.2761 32.4302H34.7223L34.353 32.6918L34.5069 33.1072L34.1377 32.8456L33.7684 33.1072L33.9223 32.6918L33.553 32.4302H33.9992L34.1377 31.9995ZM36.6608 31.9995L36.8146 32.4302H37.23L36.8761 32.6918L37.0146 33.1072L36.6454 32.8456L36.2915 33.1072L36.43 32.6918L36.0608 32.4302H36.5223L36.6608 31.9995ZM25.276 33.0764L25.3991 33.5072H25.8606L25.4914 33.7687L25.6299 34.1841L25.2606 33.9226L24.9222 34.1841L25.0606 33.7687L24.6914 33.5072H25.1529L25.276 33.0764ZM27.7991 33.0764L27.9376 33.5072H28.3838L28.0299 33.7687L28.1684 34.1841L27.7991 33.9226L27.4453 34.1841L27.5837 33.7687L27.2145 33.5072H27.6607L27.7991 33.0764ZM30.3376 33.0764L30.4761 33.5072H30.9222L30.553 33.7687L30.7069 34.1841L30.3376 33.9226L29.9684 34.1841L30.1222 33.7687L29.753 33.5072H30.1992L30.3376 33.0764ZM32.8607 33.0764L33.0146 33.5072H33.4453L33.0915 33.7687L33.23 34.1841L32.8607 33.9226L32.5069 34.1841L32.6453 33.7687L32.2761 33.5072H32.7376L32.8607 33.0764ZM35.3992 33.0764L35.5377 33.5072H35.9838L35.63 33.7687L35.7684 34.1841L35.3992 33.9226L35.0454 34.1841L35.1838 33.7687L34.8146 33.5072H35.2607L35.3992 33.0764ZM37.9377 33.0764L38.0762 33.5072H38.5223L38.1531 33.7687L38.3069 34.1841L37.9377 33.9226L37.5685 34.1841L37.7223 33.7687L37.3531 33.5072H37.7992L37.9377 33.0764Z" fill="white"/>
</g>
<defs>
<filter id="filter0_b_1706_1650" x="-50" y="-50" width="405" height="292" filterUnits="userSpaceOnUse" color-interpolation-filters="sRGB">
<feFlood flood-opacity="0" result="BackgroundImageFix"/>
<feGaussianBlur in="BackgroundImageFix" stdDeviation="25"/>
<feComposite in2="SourceAlpha" operator="in" result="effect1_backgroundBlur_1706_1650"/>
<feBlend mode="normal" in="SourceGraphic" in2="effect1_backgroundBlur_1706_1650" result="shape"/>
</filter>
<clipPath id="clip0_1706_1650">
<rect x="24" y="24" width="20" height="20" rx="10" fill="white"/>
</clipPath>
</defs>
</svg>
